<svg xmlns="http://www.w3.org/2000/svg" fill="#24292e" width="28" height="22" viewBox="0.499 48.118 511.002 415.763"><path d="M510.003 279.642c-2.998-21.097-10.305-41.104-21.725-59.459-9.959-16.019-22.738-30.266-37.991-42.375l.041-.038L290.133 54.731a4.569 4.569 0 0 0-.361-.287c-5.326-4.08-12.537-6.325-20.297-6.325-7.77 0-15.263 2.25-21.088 6.338-6.263 4.375-9.843 10.18-10.093 16.359-.229 5.765 2.521 11.312 7.764 15.636 10.31 8.135 20.597 16.447 30.898 24.769 9.997 8.08 20.298 16.401 30.549 24.502l-196.213-.133c-22.439 0-37.718 10.537-40.861 28.178-1.381 7.727 1.056 16.223 6.504 22.73 5.78 6.898 14.172 10.703 23.629 10.703l14.958.01c20.664 0 41.419-.051 62.146-.101l19.766-.046-178.08 131.748-.707.517C8.7 336.953 2.188 347.642.783 358.653c-1.065 8.342.881 15.965 5.63 22.053 5.66 7.258 14.497 11.25 24.885 11.25 10.205 0 20.618-3.867 29.334-10.908l96.166-78.7c-.411 3.843-.91 9.481-.853 13.573.108 6.479 2.188 19.479 5.481 30.033 6.804 21.69 18.265 41.535 34.063 58.963 16.438 18.132 36.458 32.509 59.5 42.722 24.36 10.774 50.547 16.243 77.836 16.243h.253c27.376-.066 53.646-5.622 78.085-16.519 23.08-10.334 43.091-24.769 59.467-42.898 15.778-17.517 27.223-37.395 34.014-59.067a151.124 151.124 0 0 0 6.416-33.003c.839-10.83.478-21.85-1.057-32.753zM334.82 383.601c-60.141 0-108.911-43.627-108.911-97.447 0-53.814 48.771-97.441 108.911-97.441 60.142 0 108.907 43.627 108.907 97.441.002 53.82-48.765 97.447-108.907 97.447zm62.807-106.01c.887 16.063-5.529 30.978-16.796 42.019-11.461 11.248-27.815 18.313-46.103 18.313-18.28 0-34.637-7.065-46.102-18.313-11.262-11.041-17.665-25.954-16.783-42.006.864-15.603 8.475-29.376 19.939-39.128 11.273-9.589 26.41-15.439 42.945-15.439 16.537 0 31.67 5.852 42.944 15.439 11.47 9.752 19.083 23.515 19.956 39.115z"/></svg>
