<svg xmlns="http://www.w3.org/2000/svg" width="28" height="22" viewBox="18 268 180.928 147.722"><path d="M112.234 350.804c.328-5.895 3.22-11.094 7.574-14.78 4.278-3.62 10.032-5.828 16.31-5.832 6.277.004 12.03 2.21 16.31 5.832 4.355 3.687 7.246 8.886 7.578 14.78.332 6.062-2.102 11.7-6.38 15.87-4.356 4.246-10.563 6.914-17.504 6.914s-13.156-2.668-17.516-6.914c-4.273-4.172-6.707-9.81-6.37-15.87z" fill="#005385"/><path d="M74.19 362.74c.04 2.3.78 6.786 1.883 10.297 2.32 7.414 6.258 14.278 11.742 20.328 5.625 6.21 12.543 11.207 20.543 14.746 8.4 3.727 17.524 5.63 26.973 5.6s18.562-1.95 26.972-5.7c7.993-3.578 14.91-8.586 20.532-14.813 5.476-6.074 9.406-12.95 11.73-20.367a51.44 51.44 0 0 0 2.207-11.367c.293-3.758.168-7.528-.363-11.29-1.043-7.332-3.582-14.215-7.484-20.49-3.583-5.76-8.184-10.808-13.66-15.058l.008-.008-55.402-42.555c-3.637-2.777-9.73-2.77-13.715.02-4.04 2.824-4.492 7.484-.9 10.433l-.012.008 23.05 18.75-70.363.074c-5.805.004-11.383 3.82-12.492 8.633-1.13 4.907 2.816 8.973 8.852 8.996l-.008.024 35.613-.07-63.555 48.777c-.078.062-.164.12-.242.183-5.988 4.6-7.93 12.227-4.156 17.06 3.836 4.914 11.98 4.918 18.04.02l34.684-28.38s-.504 3.832-.465 6.136zm89.12 12.825c-7.144 7.29-17.144 11.414-27.976 11.433s-20.84-4.074-27.99-11.344c-3.492-3.546-6.058-7.613-7.644-11.96-1.547-4.266-2.153-8.8-1.754-13.356a31.59 31.59 0 0 1 3.832-12.582c2.1-3.79 4.96-7.21 8.504-10.11 6.945-5.664 15.785-8.727 25.043-8.74s18.094 3.028 25.043 8.668c3.54 2.883 6.4 6.293 8.496 10.075 2.13 3.85 3.45 8.1 3.84 12.57.394 4.566-.207 9.1-1.758 13.36-1.582 4.352-4.145 8.426-7.637 11.985z" fill="#ff7021"/></svg>