<?xml version="1.0" encoding="UTF-8"?>
<svg xmlns="http://www.w3.org/2000/svg" xmlns:xlink="http://www.w3.org/1999/xlink" width="17px" height="17px" viewBox="0 0 20 22" version="1.1">
<g id="surface1">
<path style=" stroke:pink; stroke-width:1;fill-rule:nonzero;fill:rgb(14.117647%,16.862745%,20%);fill-opacity:1;" d="M 18.609375 4.496094 L 11.390625 0.375 C 10.53125 -0.117188 9.46875 -0.117188 8.609375 0.375 L 1.390625 4.496094 C 0.53125 4.988281 0 5.894531 0 6.878906 L 0 15.121094 C 0 16.105469 0.53125 17.011719 1.390625 17.503906 L 8.609375 21.625 C 9.46875 22.117188 10.53125 22.117188 11.390625 21.625 L 18.609375 17.503906 C 19.46875 17.011719 20 16.105469 20 15.121094 L 20 6.878906 C 20 5.894531 19.46875 4.988281 18.609375 4.496094 Z M 18.609375 4.496094 "/>
<path style=" stroke:none;fill-rule:nonzero;fill:rgb(92.54902%,40%,15.686275%);fill-opacity:1;" d="M 12.371094 10.75 C 12.40625 10.898438 12.660156 10.875 12.730469 10.714844 L 13.117188 9.847656 C 13.222656 9.609375 13.222656 9.378906 13.117188 9.199219 C 13.011719 9.015625 12.808594 8.902344 12.546875 8.875 L 11.59375 8.769531 C 11.417969 8.75 11.269531 8.953125 11.382812 9.0625 C 11.871094 9.519531 12.210938 10.105469 12.371094 10.75 Z M 12.371094 10.75 "/>
<path style=" stroke:none;fill-rule:nonzero;fill:rgb(92.54902%,40%,15.686275%);fill-opacity:1;" d="M 11.09375 10.355469 C 10.074219 8.613281 8.175781 7.816406 6.84375 8.574219 C 6.445312 8.804688 6.144531 9.148438 5.945312 9.566406 C 5.917969 9.621094 5.894531 9.679688 5.871094 9.738281 C 5.796875 9.921875 6.019531 10.078125 6.175781 9.957031 C 6.230469 9.917969 6.285156 9.882812 6.339844 9.851562 C 7.359375 9.269531 8.8125 9.878906 9.589844 11.210938 C 10.367188 12.546875 10.175781 14.097656 9.15625 14.675781 C 9.101562 14.707031 9.042969 14.738281 8.980469 14.761719 C 8.796875 14.839844 8.824219 15.109375 9.023438 15.136719 C 9.085938 15.148438 9.148438 15.152344 9.210938 15.160156 C 9.671875 15.195312 10.125 15.113281 10.527344 14.882812 C 11.855469 14.121094 12.109375 12.097656 11.09375 10.355469 Z M 11.09375 10.355469 "/>
<path style=" stroke:none;fill-rule:nonzero;fill:rgb(92.54902%,40%,15.686275%);fill-opacity:1;" d="M 8.191406 12.011719 C 7.652344 11.089844 6.648438 10.667969 5.945312 11.070312 C 5.242188 11.472656 5.109375 12.542969 5.648438 13.464844 C 6.183594 14.382812 7.1875 14.804688 7.890625 14.402344 C 8.59375 14.003906 8.726562 12.933594 8.191406 12.011719 Z M 8.191406 12.011719 "/>
<path style=" stroke:none;fill-rule:nonzero;fill:rgb(95.686275%,95.686275%,96.078431%);fill-opacity:1;" d="M 15.355469 14.585938 L 13.75 11.839844 C 13.578125 11.542969 13.132812 11.585938 13.023438 11.90625 L 12.320312 15 C 12.167969 15.679688 12.363281 16.40625 12.949219 16.824219 C 13.503906 17.222656 14.289062 17.234375 14.859375 16.859375 C 15.613281 16.371094 15.804688 15.359375 15.355469 14.585938 Z M 15.355469 14.585938 "/>
<path style=" stroke:none;fill-rule:nonzero;fill:rgb(95.686275%,95.686275%,96.078431%);fill-opacity:1;" d="M 9.5625 4.667969 L 11.167969 7.414062 C 11.339844 7.710938 11.082031 8.070312 10.742188 8.003906 L 7.683594 7.058594 C 7.011719 6.851562 6.472656 6.320312 6.398438 5.609375 C 6.328125 4.933594 6.714844 4.253906 7.324219 3.953125 C 8.128906 3.554688 9.113281 3.894531 9.5625 4.667969 Z M 9.5625 4.667969 "/>
<path style=" stroke:none;fill-rule:nonzero;fill:rgb(72.156863%,77.647059%,87.45098%);fill-opacity:1;" d="M 12.949219 16.824219 C 13.503906 17.222656 14.289062 17.234375 14.859375 16.859375 C 15.605469 16.375 15.800781 15.375 15.363281 14.605469 C 15.363281 14.621094 15.359375 14.632812 15.355469 14.648438 C 15.070312 15.914062 13.183594 15.730469 13.128906 14.433594 L 13.023438 11.910156 C 13.023438 11.910156 12.320312 15.003906 12.320312 15.003906 C 12.164062 15.679688 12.363281 16.40625 12.949219 16.824219 Z M 12.949219 16.824219 "/>
<path style=" stroke:none;fill-rule:nonzero;fill:rgb(72.156863%,77.647059%,87.45098%);fill-opacity:1;" d="M 6.398438 5.609375 C 6.328125 4.933594 6.714844 4.253906 7.324219 3.953125 C 8.125 3.558594 9.097656 3.890625 9.550781 4.648438 C 9.539062 4.644531 9.523438 4.640625 9.511719 4.632812 C 8.257812 4.246094 7.476562 5.957031 8.585938 6.648438 L 10.742188 8.003906 L 7.683594 7.058594 C 7.011719 6.851562 6.472656 6.320312 6.398438 5.609375 Z M 6.398438 5.609375 "/>
<path style=" stroke:none;fill-rule:nonzero;fill:rgb(97.647059%,63.529412%,29.803922%);fill-opacity:1;" d="M 12.730469 10.714844 L 13.117188 9.847656 C 13.222656 9.609375 13.222656 9.378906 13.117188 9.199219 L 12 9.835938 C 12.167969 10.121094 12.292969 10.429688 12.371094 10.75 C 12.40625 10.898438 12.660156 10.875 12.730469 10.714844 Z M 12.730469 10.714844 "/>
<path style=" stroke:none;fill-rule:nonzero;fill:rgb(97.647059%,63.529412%,29.803922%);fill-opacity:1;" d="M 8.191406 12.011719 L 5.648438 13.464844 C 6.183594 14.382812 7.1875 14.804688 7.890625 14.402344 C 8.59375 14.003906 8.726562 12.933594 8.191406 12.011719 Z M 8.191406 12.011719 "/>
<path style=" stroke:none;fill-rule:nonzero;fill:rgb(97.647059%,63.529412%,29.803922%);fill-opacity:1;" d="M 11.09375 10.355469 L 9.589844 11.210938 C 10.367188 12.542969 10.175781 14.09375 9.15625 14.675781 C 9.101562 14.707031 9.042969 14.738281 8.980469 14.761719 C 8.796875 14.839844 8.824219 15.105469 9.023438 15.136719 C 9.085938 15.144531 9.148438 15.152344 9.210938 15.160156 C 9.671875 15.195312 10.125 15.109375 10.527344 14.882812 C 11.855469 14.121094 12.109375 12.097656 11.09375 10.355469 Z M 11.09375 10.355469 "/>
</g>
</svg>
