<?xml version="1.0" encoding="UTF-8" standalone="no"?>
<svg
   xmlns:dc="http://purl.org/dc/elements/1.1/"
   xmlns:cc="http://creativecommons.org/ns#"
   xmlns:rdf="http://www.w3.org/1999/02/22-rdf-syntax-ns#"
   xmlns:svg="http://www.w3.org/2000/svg"
   xmlns="http://www.w3.org/2000/svg"
   xmlns:sodipodi="http://sodipodi.sourceforge.net/DTD/sodipodi-0.dtd"
   xmlns:inkscape="http://www.inkscape.org/namespaces/inkscape"
   width="28"
   height="22"
   viewBox="18 268 180.92772 147.7224"
   id="svg4155"
   version="1.1"
   inkscape:version="0.91 r13725"
   sodipodi:docname="Logo_Blender.svg">
  <metadata
     id="metadata4201">
    <rdf:RDF>
      <cc:Work
         rdf:about="">
        <dc:format>image/svg+xml</dc:format>
        <dc:type
           rdf:resource="http://purl.org/dc/dcmitype/StillImage" />
        <dc:title>generated by pstoedit</dc:title>
      </cc:Work>
    </rdf:RDF>
  </metadata>
  <defs
     id="defs4199" />
  <sodipodi:namedview
     pagecolor="#ffffff"
     bordercolor="#666666"
     borderopacity="1"
     objecttolerance="10"
     gridtolerance="10"
     guidetolerance="10"
     inkscape:pageopacity="0"
     inkscape:pageshadow="2"
     inkscape:window-width="3840"
     inkscape:window-height="2130"
     id="namedview4197"
     showgrid="false"
     fit-margin-top="2"
     fit-margin-left="2"
     fit-margin-right="2"
     fit-margin-bottom="2"
     inkscape:zoom="2.8641304"
     inkscape:cx="242.41298"
     inkscape:cy="67.053133"
     inkscape:window-x="0"
     inkscape:window-y="30"
     inkscape:window-maximized="1"
     inkscape:current-layer="svg4155" />
  <title
     id="title4157">generated by pstoedit</title>
  <!-- generated by pstoedit version:3.50 -->
  <g
     style="fill:#005385;fill-rule:nonzero;stroke-width:0;stroke-linecap:butt;stroke-linejoin:miter;stroke-miterlimit:4"
     id="g4161"
     stroke-miterlimit="4"
     transform="translate(-0.63683287,1.5502632)">
    <path
       inkscape:connector-curvature="0"
       id="path4163"
       d="m 112.871,349.254 c 0.328,-5.895 3.219,-11.094 7.574,-14.781 l 0,0 c 4.278,-3.621 10.032,-5.828 16.309,-5.832 l 0,0 c 6.277,0.004 12.031,2.211 16.309,5.832 l 0,0 c 4.355,3.687 7.246,8.886 7.578,14.781 0.332,6.062 -2.102,11.699 -6.379,15.871 l 0,0 c -4.356,4.246 -10.563,6.914 -17.504,6.914 l 0,0 c -6.945,0 -13.156,-2.668 -17.516,-6.914 l 0,0 c -4.273,-4.172 -6.707,-9.809 -6.371,-15.871 z" />
  </g>
  <g
     style="fill:#ff7021;fill-rule:nonzero;stroke-width:0;stroke-linecap:butt;stroke-linejoin:miter;stroke-miterlimit:4"
     id="g4165"
     stroke-miterlimit="4"
     transform="translate(-0.63683287,1.5502632)">
    <path
       inkscape:connector-curvature="0"
       id="path4167"
       d="m 74.8281,361.191 c 0.0391,2.301 0.7813,6.786 1.8828,10.297 l 0,0 c 2.3204,7.414 6.2579,14.278 11.7422,20.328 l 0,0 c 5.625,6.211 12.5429,11.207 20.5429,14.746 l 0,0 c 8.41,3.727 17.524,5.629 26.973,5.61 l 0,0 c 9.453,-0.016 18.562,-1.949 26.972,-5.699 l 0,0 c 7.993,-3.578 14.911,-8.586 20.532,-14.813 l 0,0 c 5.476,-6.074 9.406,-12.949 11.73,-20.367 l 0,0 c 1.176,-3.75 1.906,-7.551 2.207,-11.367 l 0,0 c 0.293,-3.758 0.168,-7.528 -0.363,-11.289 l 0,0 c -1.043,-7.332 -3.582,-14.215 -7.484,-20.489 -3.583,-5.761 -8.184,-10.808 -13.661,-15.058 l 0,0 0.008,-0.008 0,0 -55.262,-42.437 0,0 c -0.046,-0.04 -0.093,-0.079 -0.14,-0.118 l 0,0 c -3.637,-2.777 -9.731,-2.769 -13.715,0.02 l 0,0 c -4.039,2.824 -4.492,7.484 -0.91,10.433 l 0,0 -0.012,0.008 0,0 23.051,18.75 -70.2657,0.074 0,0 c -0.0313,0 -0.0625,0 -0.0977,0 l 0,0 c -5.8047,0.004 -11.3828,3.821 -12.4922,8.633 l 0,0 c -1.1289,4.907 2.8164,8.973 8.8516,8.996 l 0,0 -0.0078,0.024 0,0 35.6132,-0.07 -63.5546,48.777 0,0 c -0.0782,0.062 -0.1641,0.121 -0.2422,0.183 l 0,0 c -5.9883,4.59 -7.9297,12.227 -4.1563,17.059 l 0,0 c 3.836,4.914 11.9805,4.918 18.0391,0.02 l 0,0 34.6836,-28.379 c 0,0 -0.5039,3.832 -0.4649,6.136 z m 89.1209,12.825 c -7.144,7.289 -17.144,11.414 -27.976,11.433 l 0,0 c -10.836,0.02 -20.84,-4.074 -27.989,-11.344 l 0,0 c -3.492,-3.546 -6.058,-7.613 -7.644,-11.96 l 0,0 c -1.547,-4.266 -2.1525,-8.79 -1.7541,-13.356 l 0,0 c 0.3868,-4.469 1.7031,-8.727 3.8321,-12.582 l 0,0 c 2.09,-3.789 4.961,-7.211 8.504,-10.109 l 0,0 c 6.945,-5.664 15.785,-8.727 25.043,-8.739 l 0,0 c 9.258,-0.011 18.094,3.028 25.043,8.668 l 0,0 c 3.539,2.883 6.41,6.293 8.496,10.075 l 0,0 c 2.129,3.851 3.449,8.101 3.84,12.57 l 0,0 c 0.394,4.566 -0.207,9.09 -1.758,13.359 l 0,0 c -1.582,4.352 -4.145,8.426 -7.637,11.985 z" />
  </g>
</svg>
