<svg version="1.0" xmlns="http://www.w3.org/2000/svg" fill="#2AABE1" width="16" height="16" viewBox="5.5 -3.5 64 64" xml:space="preserve"><circle fill="#FFF" cx="37.637" cy="28.806" r="28.276"/><path d="M37.443-3.5c8.988 0 16.57 3.085 22.742 9.257C66.393 11.967 69.5 19.548 69.5 28.5c0 8.991-3.049 16.476-9.145 22.456-6.476 6.363-14.113 9.544-22.912 9.544-8.649 0-16.153-3.144-22.514-9.43C8.644 44.784 5.5 37.262 5.5 28.5c0-8.761 3.144-16.342 9.429-22.742C21.101-.415 28.604-3.5 37.443-3.5zm.114 5.772c-7.276 0-13.428 2.553-18.457 7.657-5.22 5.334-7.829 11.525-7.829 18.572 0 7.086 2.59 13.22 7.77 18.398 5.181 5.182 11.352 7.771 18.514 7.771 7.123 0 13.334-2.607 18.629-7.828 5.029-4.838 7.543-10.952 7.543-18.343 0-7.276-2.553-13.465-7.656-18.571-5.104-5.104-11.276-7.656-18.514-7.656zm8.572 18.285v13.085h-3.656v15.542h-9.944V33.643h-3.656V20.557c0-.572.2-1.057.599-1.457.401-.399.887-.6 1.457-.6h13.144c.533 0 1.01.2 1.428.6.417.4.628.886.628 1.457zm-13.087-8.228c0-3.008 1.485-4.514 4.458-4.514s4.457 1.504 4.457 4.514c0 2.971-1.486 4.457-4.457 4.457s-4.458-1.486-4.458-4.457z"/></svg>