<svg version="1.0" xmlns="http://www.w3.org/2000/svg" fill="#2AABE1" width="16" height="16" viewBox="5.5 -3.5 64 64" xml:space="preserve"><circle fill="#FFF" cx="37.785" cy="28.501" r="28.836"/><path d="M37.441-3.5c8.951 0 16.572 3.125 22.857 9.372 3.008 3.009 5.295 6.448 6.857 10.314 1.561 3.867 2.344 7.971 2.344 12.314 0 4.381-.773 8.486-2.314 12.313-1.543 3.828-3.82 7.21-6.828 10.143-3.123 3.085-6.666 5.448-10.629 7.086-3.961 1.638-8.057 2.457-12.285 2.457s-8.276-.808-12.143-2.429c-3.866-1.618-7.333-3.961-10.4-7.027-3.067-3.066-5.4-6.524-7-10.372S5.5 32.767 5.5 28.5c0-4.229.809-8.295 2.428-12.2 1.619-3.905 3.972-7.4 7.057-10.486C21.08-.394 28.565-3.5 37.441-3.5zm.116 5.772c-7.314 0-13.467 2.553-18.458 7.657-2.515 2.553-4.448 5.419-5.8 8.6a25.204 25.204 0 0 0-2.029 9.972c0 3.429.675 6.734 2.029 9.913 1.353 3.183 3.285 6.021 5.8 8.516 2.514 2.496 5.351 4.399 8.515 5.715a25.652 25.652 0 0 0 9.943 1.971c3.428 0 6.75-.665 9.973-1.999 3.219-1.335 6.121-3.257 8.713-5.771 4.99-4.876 7.484-10.99 7.484-18.344 0-3.543-.648-6.895-1.943-10.057-1.293-3.162-3.18-5.98-5.654-8.458-5.146-5.143-11.335-7.715-18.573-7.715zm-.401 20.915-4.287 2.229c-.458-.951-1.019-1.619-1.685-2-.667-.38-1.286-.571-1.858-.571-2.856 0-4.286 1.885-4.286 5.657 0 1.714.362 3.084 1.085 4.113.724 1.029 1.791 1.544 3.201 1.544 1.867 0 3.181-.915 3.944-2.743l3.942 2c-.838 1.563-2 2.791-3.486 3.686-1.484.896-3.123 1.343-4.914 1.343-2.857 0-5.163-.875-6.915-2.629-1.752-1.752-2.628-4.19-2.628-7.313 0-3.048.886-5.466 2.657-7.257 1.771-1.79 4.009-2.686 6.715-2.686 3.963-.002 6.8 1.541 8.515 4.627zm18.457 0-4.229 2.229c-.457-.951-1.02-1.619-1.686-2-.668-.38-1.307-.571-1.914-.571-2.857 0-4.287 1.885-4.287 5.657 0 1.714.363 3.084 1.086 4.113.723 1.029 1.789 1.544 3.201 1.544 1.865 0 3.18-.915 3.941-2.743l4 2c-.875 1.563-2.057 2.791-3.541 3.686a9.233 9.233 0 0 1-4.857 1.343c-2.896 0-5.209-.875-6.941-2.629-1.736-1.752-2.602-4.19-2.602-7.313 0-3.048.885-5.466 2.658-7.257 1.77-1.79 4.008-2.686 6.713-2.686 3.962-.002 6.783 1.541 8.458 4.627z"/></svg>