<svg xmlns="http://www.w3.org/2000/svg" fill="#2AABE1" width="16" height="16" viewBox="0 0 24 24"><path d="M12 0C5.374 0 0 5.373 0 12c0 5.302 3.438 9.8 8.207 11.387.6.11.793-.26.793-.577v-2.234c-3.338.726-4.033-1.416-4.033-1.416-.546-1.387-1.333-1.756-1.333-1.756-1.09-.745.083-.73.083-.73 1.205.084 1.84 1.237 1.84 1.237 1.07 1.834 2.807 1.304 3.492.997.107-.775.418-1.305.762-1.604-2.665-.305-5.467-1.334-5.467-5.93 0-1.31.47-2.38 1.236-3.22-.124-.303-.535-1.524.117-3.176 0 0 1.008-.322 3.3 1.23A11.51 11.51 0 0 1 12 5.803c1.02.005 2.047.138 3.006.404 2.29-1.552 3.297-1.23 3.297-1.23.653 1.653.242 2.874.118 3.176a4.63 4.63 0 0 1 1.235 3.221c0 4.61-2.807 5.624-5.48 5.92.43.372.823 1.102.823 2.222V22.8c0 .32.192.694.8.576C20.566 21.797 24 17.3 24 12c0-6.627-5.373-12-12-12z"/></svg>